<?xml version="1.0" encoding="UTF-8"?> <svg xmlns="http://www.w3.org/2000/svg" viewBox="0 0 458.05 150"><g data-name="Layer 2"><g data-name="Layer 1" fill-rule="evenodd"><path fill="#ccc" d="m106.57 0-5.26 8.93h-.18v.3l-7.26 12.33h7.26v8.78h-7.45l7.45 13.4v.88h-6.04l7.59 11.8-4.27 5.99-8.43.25-7.29-11.56-3.04 4.75-.82-.43-9.09-12.56-3.73 5.84-8.39-4.38 3.62-5.7-15.41-.47-.3-.15-.09.14-11.16-.33 5.89 8.59-.08.15.3.15 8.14 11.85 3.64-5.69 8.4 4.38-3.73 5.87 16.55.84.84.44-3.04 4.75 15.56-.06 3.48 5.71-4.48 7.37-14.56-.07 3.04 4.76-.84.43-16.55.85 3.73 5.86-8.4 4.39-3.64-5.7-8.14 11.85-.3.16.08.14-5.89 8.59 11.16-.33.09.14.3-.15 15.41-.47-3.62-5.7 8.39-4.38 3.73 5.85 9.09-12.56.82-.44 3.04 4.75L91 86.96l7.41.22 4.18 5.85-7.96 12.35h6.05v.87l-7.47 13.41h7.47v8.78h-7.26l7.26 12.32v.32h.18l5.26 8.92 5.26-8.92h.19v-.31l7.25-12.33h-7.25v-8.78h7.45l-7.45-13.41v-.87h6.04L110.1 93.7l4.65-6.52 7.41-.22 8.3 13.17 3.02-4.75.84.44 9.1 12.56 3.72-5.85 8.39 4.38-3.62 5.7 15.4.47.31.15.09-.14 11.16.33-5.9-8.59.1-.14-.31-.15-8.14-11.86-3.64 5.7-8.4-4.39 3.73-5.86-16.55-.85-.84-.43 3.04-4.76-14.56.07-4.48-7.37 3.48-5.71 15.56.06-3.04-4.75.84-.44 16.55-.84-3.73-5.87 8.4-4.38 3.64 5.69 8.14-11.85.31-.15-.1-.15 5.9-8.59-11.16.33-.09-.14-.31.15-15.4.47 3.62 5.7-8.39 4.38-3.72-5.84-9.1 12.56-.84.43-3.02-4.75-7.29 11.56-8.42-.25-4.28-5.99 7.59-11.8h-6.04v-.88l7.45-13.4h-7.45v-8.78h7.26l-7.26-12.32v-.31h-.18L106.57 0z"></path><path d="M435.79 98.5v-.2a.73.73 0 0 1 .07-.13l.52-.41.15-.1h.18l1.19.13h.24l3 .33a13 13 0 0 1 2.39.49s.06 0 .11.06a2.31 2.31 0 0 1-.35.21 6.3 6.3 0 0 1-1.67.42l-1.86.15-1.76-.07a6.25 6.25 0 0 1-1.59-.36 2.16 2.16 0 0 1-.62-.41Zm3.75-31.15c.18.05.47.12.83.79a6.85 6.85 0 0 1 .76 3.39 6.24 6.24 0 0 1-.8 3.55c-.17.23-.31.37-.92.37a.89.89 0 0 1-.9-.46 5.89 5.89 0 0 1-.85-3.46 6.3 6.3 0 0 1 .95-3.66c.37-.53.58-.53.9-.53M425 77.54a21.6 21.6 0 0 1 .18-2.52 18.06 18.06 0 0 0 .69 2.72 16.78 16.78 0 0 0 1.33 2.84 8.2 8.2 0 0 0-.58.74 9.5 9.5 0 0 0-1.5 5.3 11.69 11.69 0 0 0 .84 4.58 12 12 0 0 0-1 1.07Zm-24.82 8.75h0a4.83 4.83 0 0 1-1.29-1.69 12.27 12.27 0 0 1-1-3.25 24.72 24.72 0 0 1-.34-4.12 25.7 25.7 0 0 1 .34-4.17 11.64 11.64 0 0 1 1-3.21 5.2 5.2 0 0 1 1.38-1.77 1.18 1.18 0 0 1 .85-.23 1.25 1.25 0 0 1 .88.24 5.23 5.23 0 0 1 1.32 1.75 12.83 12.83 0 0 1 1 3.3 23.79 23.79 0 0 1 .35 4.09 29.34 29.34 0 0 1-.41 4.12 12.06 12.06 0 0 1-1 3.25 4.77 4.77 0 0 1-1.29 1.67 1.28 1.28 0 0 1-.94.29 1.2 1.2 0 0 1-.88-.27Zm-37.1-17.38a3.76 3.76 0 0 1 1.07-1.1.92.92 0 0 1 .56-.13 1.07 1.07 0 0 1 .35 0 2.55 2.55 0 0 1 .74.9 8 8 0 0 1 .48 1.36h-3.7a7.68 7.68 0 0 1 .47-1.03Zm-46.46 17.5a4.24 4.24 0 0 1-1.23-1.69 12.92 12.92 0 0 1-.93-3.38 30.5 30.5 0 0 1-.32-4.34 19.68 19.68 0 0 1 .42-4 12.41 12.41 0 0 1 1.11-3.2 4.59 4.59 0 0 1 1.33-1.6 1.72 1.72 0 0 1 1.09-.3h1.13l.37.06 1 .3 2.43.87-.8-.38a4.5 4.5 0 0 0 2 .62v15.94l-2.78.83-1.37.38-1 .12h-1.5a1.27 1.27 0 0 1-.98-.23Zm-51.36-.07a2.13 2.13 0 0 1 .26-1 9.25 9.25 0 0 1 3.3-2.86v1.21a5.06 5.06 0 0 1-.88 1.65 3.55 3.55 0 0 1-1.14 1.12 1.76 1.76 0 0 1-.91.23 1.78 1.78 0 0 1-.55-.08 1.5 1.5 0 0 1-.11-.27Zm-32.75 0a2.11 2.11 0 0 1 .25-1 9.33 9.33 0 0 1 3.3-2.86v1.21a5.26 5.26 0 0 1-.88 1.65 3.55 3.55 0 0 1-1.18 1.09 1.69 1.69 0 0 1-.9.23 1.91 1.91 0 0 1-.56-.08 1.57 1.57 0 0 1-.06-.24Zm-44.06 0a1.94 1.94 0 0 1 .27-1 9 9 0 0 1 3.28-2.89v1.21a5.26 5.26 0 0 1-.88 1.65 3.45 3.45 0 0 1-1.14 1.12 1.73 1.73 0 0 1-.91.23 1.85 1.85 0 0 1-.56-.08 1.57 1.57 0 0 1-.09-.24Zm-24.85 0a2.13 2.13 0 0 1 .26-1 9.25 9.25 0 0 1 3.3-2.86v1.21a5.26 5.26 0 0 1-.88 1.65 3.55 3.55 0 0 1-1.14 1.12 1.73 1.73 0 0 1-.91.23 1.85 1.85 0 0 1-.56-.08 1.57 1.57 0 0 1-.1-.27ZM266 67.71h1.6a1.85 1.85 0 0 1 .76.12 25.88 25.88 0 0 1 .17 3.37v.07c-4.11 1.46-7.65 2.78-9.42 4.13-.43.33-.92.72-1.42 1.15v-7.34a4.74 4.74 0 0 0 2.93-.09l-.26.09 3.35-1 1.36-.37Zm-32.76 0h1.6a1.85 1.85 0 0 1 .76.12 25.88 25.88 0 0 1 .17 3.37v.07c-4.11 1.46-7.64 2.78-9.42 4.13a30.83 30.83 0 0 0-2.86 2.47l2.6-8.45a4.49 4.49 0 0 0 1.77-.27l-.26.09 3.35-1 1.35-.37Zm-44.05 0h1.59a1.87 1.87 0 0 1 .77.12 25.88 25.88 0 0 1 .17 3.37v.07c-4.12 1.46-7.65 2.78-9.42 4.13-.62.47-1.36 1.07-2.1 1.74v-5.81c0-.89-.08-1.69-.14-2.5a4.59 4.59 0 0 0 3.75.29l-.26.09 3.34-1 1.36-.37Zm-24.85 0h1.59a1.87 1.87 0 0 1 .77.12 26.23 26.23 0 0 1 .16 3.37v.07c-4.1 1.46-7.64 2.78-9.41 4.13-.44.33-.92.72-1.43 1.15v-7.34a4.77 4.77 0 0 0 2.94-.09l-.26.09 3.34-1 1.36-.37Zm-57.89 18.58h0a4.84 4.84 0 0 1-1.3-1.69 11.91 11.91 0 0 1-1-3.25 23.7 23.7 0 0 1-.34-4.12 24.62 24.62 0 0 1 .34-4.17 11.31 11.31 0 0 1 1-3.21 5.22 5.22 0 0 1 1.39-1.77 1.16 1.16 0 0 1 .85-.23 1.2 1.2 0 0 1 .87.24 5.12 5.12 0 0 1 1.33 1.75 12.1 12.1 0 0 1 1 3.3 22.85 22.85 0 0 1 .36 4.09 29.34 29.34 0 0 1-.42 4.12 11.71 11.71 0 0 1-1 3.25 4.75 4.75 0 0 1-1.28 1.67 1.28 1.28 0 0 1-.94.29 1.21 1.21 0 0 1-.86-.27Zm-29.26-1.58a16.14 16.14 0 0 0-.51-4c.32.18.62.38 1 .54l3.28 1.44 1.41.57.88.37a5.16 5.16 0 0 1 1.06.61 1.23 1.23 0 0 1 .33.38 1.84 1.84 0 0 1 .07.6 1.19 1.19 0 0 1 0 .43 1.37 1.37 0 0 1-.42.44 1.78 1.78 0 0 1-.66.31 3.59 3.59 0 0 1-.93.16h-1.4c-.1 0-.89-.09-.89-.09L78.85 86l-1.74-.53c.02-.23.08-.47.08-.76Zm-22.73-5.3a14.37 14.37 0 0 0 2.85 1.81l3.28 1.44 1.4.57.89.37a5.16 5.16 0 0 1 1.06.61 1.11 1.11 0 0 1 .33.38 1.84 1.84 0 0 1 .07.6 1 1 0 0 1-.06.43 1.35 1.35 0 0 1-.41.44 1.86 1.86 0 0 1-.66.31 3.65 3.65 0 0 1-.93.16h-1.4c-.1 0-.89-.09-.89-.09L58.52 86l-2.92-.89a4.38 4.38 0 0 0-1.14-.11Zm29.17-11.59h1.18l.51.09c.11 0 1.19.33 1.19.33l2.72 1 .38.08a4.83 4.83 0 0 0 2 0v.09a29.44 29.44 0 0 0-.61 3.28 13.38 13.38 0 0 0-1.53-.86L86 70.35c-.11 0-2-.79-2-.79a5.31 5.31 0 0 1-1-.58.74.74 0 0 1-.22-.21v-.1a2.43 2.43 0 0 1 .08-.74v0Zm-20.33 0h1.17l.52.09c.11 0 1.19.33 1.19.33l2.72 1 .38.08a4.08 4.08 0 0 0 .77.07 15.9 15.9 0 0 0 .38 3.16c-.42-.24-.83-.5-1.27-.71l-3.47-1.48-2-.79A5.42 5.42 0 0 1 62.6 69a.7.7 0 0 1-.21-.21v-.1a2.43 2.43 0 0 1 .08-.74v0Zm313.2 29.43 3.05 1.08h4.35a4.27 4.27 0 0 0 4.44-4.27v-2a16.13 16.13 0 0 0 4.93 4.94 14.51 14.51 0 0 0 7.73 2.09 14.78 14.78 0 0 0 7.72-2 16.2 16.2 0 0 0 3.68-3.24V94a4.33 4.33 0 0 0 4.5 4.33h3.49a4.72 4.72 0 0 0 2.75-.91 10.64 10.64 0 0 0-.08 1.29 11.92 11.92 0 0 0 2 7.06 13.07 13.07 0 0 0 4.71 4.08 16.84 16.84 0 0 0 5.49 1.72 32.74 32.74 0 0 0 4.58.35 32 32 0 0 0 4.74-.39 17.59 17.59 0 0 0 5.63-1.85 13.2 13.2 0 0 0 4.7-4.25 12.41 12.41 0 0 0 1.94-7.13 12.26 12.26 0 0 0-1.76-6.86 11.85 11.85 0 0 0-4.56-4.11 17.12 17.12 0 0 0-4-1.4 13.92 13.92 0 0 0 3.47-2.78 15.43 15.43 0 0 0 2.93-5.26 20.58 20.58 0 0 0 1-6.56 15.79 15.79 0 0 0-.56-3.92 4.39 4.39 0 0 0 2.94-1.84l.31-.47-.24.36.67-2.33v-3.68a4.35 4.35 0 0 0-4.56-4.33H441.2l-.5-.08-1.25-.04a14.61 14.61 0 0 0-5.9 1.23 11 11 0 0 0-1.16.67 4.61 4.61 0 0 0-3.28-1.28l.74.07-.4-.09-1.08-.18-1.29-.08a9.57 9.57 0 0 0-4.89 1.35 4.75 4.75 0 0 0-2.09-.52h-3.16a4.29 4.29 0 0 0-4.5 4.27v.26a16.16 16.16 0 0 0-3.68-3.26 15.5 15.5 0 0 0-15.53 0 15.87 15.87 0 0 0-5.14 5.11 22.18 22.18 0 0 0-2.8 6.86 33.61 33.61 0 0 0-.87 7.85 32.92 32.92 0 0 0 .8 7.24 5.11 5.11 0 0 0-1.38-.24h-4.35a4.41 4.41 0 0 0-3.49 1.55l-.39-.57.22.48a4.64 4.64 0 0 0-3.91-.59h0l-3.37 1-1.42.37-1 .13h-1.45a1.86 1.86 0 0 1-1-.19 3.12 3.12 0 0 1-1-1.21 10.27 10.27 0 0 1-.92-2.76v-.14h13.7A4.34 4.34 0 0 0 380 78a50.14 50.14 0 0 0-.58-7.62 24.22 24.22 0 0 0-2.17-7.06 15.19 15.19 0 0 0-4.71-5.61 14.42 14.42 0 0 0-15.78-.14A16.72 16.72 0 0 0 352 62.7a16.2 16.2 0 0 0-1-2 12.15 12.15 0 0 0-10.69-5.7 13 13 0 0 0-3.49.48v-9.35a4.36 4.36 0 0 0-4.56-4.33h-3.6a4.33 4.33 0 0 0-4.49 4.33v10.23l-1.17-.52c-.05 0-2.75-.48-2.75-.48h-2.36a14.82 14.82 0 0 0-7.78 2.06 15.92 15.92 0 0 0-4.89 4.58c-.19-.36-.34-.75-.55-1.09a12 12 0 0 0-4.26-4.07 12.73 12.73 0 0 0-6.36-1.56 12.11 12.11 0 0 0-6 1.52 4.57 4.57 0 0 0-2.36-.69h-3.39a4.3 4.3 0 0 0-4.3 3.09c-1.78-1.86-4.93-3.89-10.23-3.89h-2.19l-2.55.4-2.61.8-2.77 1V46.13a4.33 4.33 0 0 0-4.49-4.33h-3.77a4.3 4.3 0 0 0-4.39 4.33V58.9c-1.84-1.78-4.94-3.59-9.94-3.59h-2.19l-2.55.4-2.61.8-1 .37a4.7 4.7 0 0 0-2.59-.79h-3.54L216 57.8l1.41-.43-1.45 3.13.26-1.22-3 10.11-3-10.09.15 1a4 4 0 0 0-1.68-3.16l-.55-.41.41.32-2.74-.88h-4a4.67 4.67 0 0 0-3 1.12 14.84 14.84 0 0 0-7.81-1.98h-2.2l-2.55.4-2.6.8-4 1.4a4.22 4.22 0 0 0-2.5 2.26c-.15-.19-.25-.42-.41-.6-1.71-2-4.94-4.31-10.64-4.31h-2.19l-2.54.4-2.61.8-2.78 1V46.13a4.33 4.33 0 0 0-4.49-4.33h-3.76a4.31 4.31 0 0 0-4.45 4.33v10.18a5.14 5.14 0 0 0-1-.17h-3.59a4.28 4.28 0 0 0-4.49 4.27v18.71a15.17 15.17 0 0 1-.36 3.27A9.84 9.84 0 0 1 133 85a3.6 3.6 0 0 1-1.06 1.26.77.77 0 0 1-.56.15 1.22 1.22 0 0 1-.48-.55 5.71 5.71 0 0 1-.56-1.68 16.21 16.21 0 0 1-.2-2.64V60.41a4.32 4.32 0 0 0-4.55-4.27H122a4.26 4.26 0 0 0-4.3 3.3 16.56 16.56 0 0 0-2.59-2 15.48 15.48 0 0 0-15.52 0 15.3 15.3 0 0 0-3.7 3.31A4.32 4.32 0 0 0 94 58.36l-.15-.08-2.77-1.46c-.07 0-2.31-1-2.31-1L86 55.36h-2.35a16 16 0 0 0-4.86.76 12.25 12.25 0 0 0-4.59 2.61l-.05.06c-.15-.13-.3-.26-.46-.38l-.15-.08-2.77-1.46-2.31-1-2.8-.48h-2.34a16.09 16.09 0 0 0-4.87.76 12.2 12.2 0 0 0-4.31 2.41 4.19 4.19 0 0 0-2.22-2.22l1.19-.44 1.55-3.2v-5.81L53.43 44a4.61 4.61 0 0 0-3.35-1.46h-4a4.3 4.3 0 0 0-4.43 4.34v5.73a4.17 4.17 0 0 0 2.69 3.94l-1.62.77-.81 2.13A11.89 11.89 0 0 0 39.17 57a12.1 12.1 0 0 0-6.46-1.71 11.61 11.61 0 0 0-7.64 2.75h0c-.11.1-.17.23-.28.32-.08-.07-.14-.16-.21-.22A10.93 10.93 0 0 0 17 55.31a11.84 11.84 0 0 0-5.84 1.45 4.72 4.72 0 0 0-2.27-.62H5.55A4.31 4.31 0 0 0 1 60.41V94a4.34 4.34 0 0 0 4.55 4.33H9.2A4.34 4.34 0 0 0 13.75 94V74.82a18.67 18.67 0 0 1 .25-3.24 9.94 9.94 0 0 1 .79-2.47 3.5 3.5 0 0 1 .9-1.14.7.7 0 0 1 .24-.06 1.35 1.35 0 0 1 .22.28 6.47 6.47 0 0 1 .53 1.71 13 13 0 0 1 .22 2.39V94a4.35 4.35 0 0 0 4.55 4.33h3.65A4.35 4.35 0 0 0 29.69 94V74.68a17.09 17.09 0 0 1 .31-3.15 9.37 9.37 0 0 1 .79-2.48 2.9 2.9 0 0 1 .83-1.05.42.42 0 0 1 .28-.09 1.72 1.72 0 0 1 .29.4 5.89 5.89 0 0 1 .54 1.63 14.37 14.37 0 0 1 .2 2.36V94a4.35 4.35 0 0 0 4.55 4.33h3.65a4.63 4.63 0 0 0 2.59-.81 4.59 4.59 0 0 0 2.5.81H50A4.62 4.62 0 0 0 53.24 97l2 .81 2.51.83 2.66.43h2.17a17.33 17.33 0 0 0 5-.77 13.84 13.84 0 0 0 4-2.09l3.91 1.56 2.52.83 2.65.43h2.17a17.33 17.33 0 0 0 5-.77 14.1 14.1 0 0 0 4.85-2.64 13.05 13.05 0 0 0 2.4-2.85 16.17 16.17 0 0 0 4.5 4.23 14.51 14.51 0 0 0 7.77 2.12 14.72 14.72 0 0 0 7.71-2 15.71 15.71 0 0 0 4.69-4.5c.13.24.23.51.36.74a12.09 12.09 0 0 0 4.33 4.23 13.15 13.15 0 0 0 6.56 1.5 11.63 11.63 0 0 0 5.74-1.48 4.87 4.87 0 0 0 2.47.72h3.22a4.65 4.65 0 0 0 2.71-.89 4.64 4.64 0 0 0 2.66.89h3.76a4.55 4.55 0 0 0 3.71-2 12.67 12.67 0 0 0 3.17 1.85 14.92 14.92 0 0 0 5.2.92 13.14 13.14 0 0 0 6.4-1.64 4.83 4.83 0 0 0 2.58.82h3.55a4.48 4.48 0 0 0 3.83-2.01 12.8 12.8 0 0 0 3.31 2 15 15 0 0 0 5.21.92 13.13 13.13 0 0 0 6.39-1.64 4.83 4.83 0 0 0 2.58.82H201a4.46 4.46 0 0 0 4.15-2.57c0-.09.15-2.94.15-2.94v-.06l-.08-.47-.07-1.07-.06-1.55v-3.13l2.64 8.69-.05-.19c.16.63.91 2.73 4.07 3.06 2.16.23 5 0 6.18-2.25l.16-.29 1.69-5.48c.06.2.11.39.18.61a12.85 12.85 0 0 0 2.91 4.64 12.49 12.49 0 0 0 4.48 2.93 15 15 0 0 0 5.21.92 13.13 13.13 0 0 0 6.39-1.64 4.86 4.86 0 0 0 2.58.82H245a4.63 4.63 0 0 0 2.25-.59 4.56 4.56 0 0 0 2.14.59h3.77a4.53 4.53 0 0 0 3.7-2 12.67 12.67 0 0 0 3.17 1.85 14.94 14.94 0 0 0 5.21.92 13.1 13.1 0 0 0 6.39-1.64 4.8 4.8 0 0 0 2.58.82h3.55a4.73 4.73 0 0 0 2.3-.61 4.7 4.7 0 0 0 2.2.61h3.59a4.35 4.35 0 0 0 4.6-4.35V75.29a16.2 16.2 0 0 1 .34-3.4 8.79 8.79 0 0 1 .93-2.55 3.84 3.84 0 0 1 1.1-1.24 1.07 1.07 0 0 1 .76-.22 1.19 1.19 0 0 1 .39.43 4.81 4.81 0 0 1 .56 1.44 9.84 9.84 0 0 1 .23 2.2V94a4.32 4.32 0 0 0 4.5 4.33h3.6a4.32 4.32 0 0 0 4.36-3.42 15.59 15.59 0 0 0 2.69 2.09 14.68 14.68 0 0 0 7.76 2.06h2.19l2.61-.41 2.54-.83 1.06-.42a4.53 4.53 0 0 0 2.64.94h3.61a4.34 4.34 0 0 0 4.54-4.34V75.08a17.18 17.18 0 0 1 .35-3.48 9.61 9.61 0 0 1 .93-2.57 3.66 3.66 0 0 1 1.09-1.25 1.17 1.17 0 0 1 .7-.17 1.72 1.72 0 0 1 .38.46 4.27 4.27 0 0 1 .48 1.34 11.16 11.16 0 0 1 .24 2.33V94a4.32 4.32 0 0 0 4.49 4.33h3.6a4.34 4.34 0 0 0 4.51-4.12 15.52 15.52 0 0 0 3.42 2.88 15.16 15.16 0 0 0 7.84 2h2.18l2.58-.41 2.54-.83 3.81-1.57" fill="#fff" stroke="#ccc" stroke-linecap="round" stroke-linejoin="round" stroke-width="2"></path><path d="m447.1 63.07 5.21.69a.29.29 0 0 0 .35-.14.9.9 0 0 0 .13-.49v-3.68c0-.41-.16-.61-.48-.61h-11.55a4.44 4.44 0 0 0-.68-.1 7 7 0 0 0-.82 0 9.93 9.93 0 0 0-4.13.86 9.52 9.52 0 0 0-3.38 2.49 11.63 11.63 0 0 0-2.28 4 15.6 15.6 0 0 0-.84 5.26 16 16 0 0 0 .89 5.32 12.13 12.13 0 0 0 2.55 4.3 8.66 8.66 0 0 0-2.17 2.32 6.11 6.11 0 0 0-.94 3.41 6.43 6.43 0 0 0 2 5.19 10.79 10.79 0 0 0-2.85 2.59 7.13 7.13 0 0 0-1.11 4.23 8.6 8.6 0 0 0 1.34 5 9 9 0 0 0 3.28 2.86 12.83 12.83 0 0 0 4.14 1.3 28.11 28.11 0 0 0 4 .31 27.3 27.3 0 0 0 4.08-.35 13.21 13.21 0 0 0 4.25-1.4 8.47 8.47 0 0 0 4.61-8.15 9 9 0 0 0-1.18-5 7.75 7.75 0 0 0-3-2.76 12.76 12.76 0 0 0-4.08-1.3c-1.48-.23-2.93-.41-4.37-.55l-2.49-.27a12 12 0 0 1-2.05-.41 3.78 3.78 0 0 1-1.39-.72 1.42 1.42 0 0 1-.51-1.13 2 2 0 0 1 .81-1.64 8.65 8.65 0 0 1 1.55-.95 7 7 0 0 0 1.61.48 10.94 10.94 0 0 0 1.61.14 10 10 0 0 0 4.2-.89 9.84 9.84 0 0 0 3.35-2.53 11.85 11.85 0 0 0 2.22-4 17 17 0 0 0 .81-5.46 13.13 13.13 0 0 0-.81-4.44 20.41 20.41 0 0 0-1.88-3.78Zm-2.1 8.46a9.29 9.29 0 0 1-1.51 5.64 5.47 5.47 0 0 1-8.49-.07 9.07 9.07 0 0 1-1.56-5.57 9.72 9.72 0 0 1 1.56-5.67 5 5 0 0 1 4.33-2.24 2.32 2.32 0 0 1 .59.06.55.55 0 0 0 .33.08h.15a5.13 5.13 0 0 1 3.43 2.72 10.33 10.33 0 0 1 1.17 5.05Zm3 26.91a3.23 3.23 0 0 1-1 2.48 6.71 6.71 0 0 1-2.28 1.44 10.92 10.92 0 0 1-2.72.64 19.54 19.54 0 0 1-2.38.18c-.61 0-1.38 0-2.28-.14a11.2 11.2 0 0 1-2.68-.61 6.17 6.17 0 0 1-2.22-1.44 3.48 3.48 0 0 1-.94-2.53 3.78 3.78 0 0 1 .32-1.6 4.18 4.18 0 0 1 .84-1.23 8 8 0 0 1 1.13-.93l1.2-.81V94a.28.28 0 0 1 .14-.1l.18-.1a7.6 7.6 0 0 0 1.38.16 15.84 15.84 0 0 1 1.68.18c1 .09 2 .21 3.14.34a18.28 18.28 0 0 1 3.15.64 7 7 0 0 1 2.39 1.23 2.61 2.61 0 0 1 .95 2.09Zm-19.07-33.32.48-.62v-4.58c0-.39-.16-.6-.48-.6a5.21 5.21 0 0 1-.65-.14c-.21 0-.43-.08-.64-.11s-.47 0-.74 0a5.16 5.16 0 0 0-4 1.75 13.06 13.06 0 0 0-2.56 4.18v-4.59c0-.37-.14-.55-.43-.55h-3.16c-.29 0-.43.18-.43.55V94c0 .4.14.61.43.61h3.49c.31 0 .47-.21.47-.61V77.54a29.22 29.22 0 0 1 .33-4.06 20.67 20.67 0 0 1 1-4.1 9.75 9.75 0 0 1 1.85-3.17 3.64 3.64 0 0 1 2.83-1.3h.66l.73.11a2.15 2.15 0 0 1 .43 0ZM413.42 77.2a29.9 29.9 0 0 0-.81-7 18.86 18.86 0 0 0-2.35-5.76 12.09 12.09 0 0 0-4-3.93A10.26 10.26 0 0 0 400.8 59a10.45 10.45 0 0 0-5.5 1.43 12 12 0 0 0-3.89 3.89 18.93 18.93 0 0 0-2.34 5.78 31.23 31.23 0 0 0-.78 7.06 29.84 29.84 0 0 0 .81 7 19.19 19.19 0 0 0 2.36 5.84 12.36 12.36 0 0 0 3.92 3.93 10.24 10.24 0 0 0 5.47 1.46 10.39 10.39 0 0 0 5.48-1.43 11.84 11.84 0 0 0 3.94-3.96 18.49 18.49 0 0 0 2.37-5.8 30.4 30.4 0 0 0 .78-7Zm-4.94 0h-.05a27.31 27.31 0 0 1-.41 4.71 15 15 0 0 1-1.29 4.16 8.08 8.08 0 0 1-2.36 3 5.57 5.57 0 0 1-3.57 1.17 5.47 5.47 0 0 1-3.54-1.17 8.28 8.28 0 0 1-2.36-3 15 15 0 0 1-1.32-4.16 27.3 27.3 0 0 1-.39-4.71 28.1 28.1 0 0 1 .39-4.75 14.83 14.83 0 0 1 1.34-4.19 9.07 9.07 0 0 1 2.38-3 6 6 0 0 1 7.11 0 8.84 8.84 0 0 1 2.35 3 15.89 15.89 0 0 1 1.32 4.23 27.44 27.44 0 0 1 .4 4.71Zm-29.12 17.41h4.35c.25 0 .37-.19.37-.55v-5.59c0-.36-.15-.55-.42-.55h-4.36c-.28 0-.42.19-.42.55v5.59a.48.48 0 0 0 .48.55Zm-207 0h3.54a.38.38 0 0 0 .38-.23.82.82 0 0 0 0-.58 8.17 8.17 0 0 1-.19-1.07c0-.43-.09-.91-.11-1.43l.02-1.5V71.33c0-4.33-.84-7.45-2.53-9.39S169.24 59 166 59h-2a8.71 8.71 0 0 0-1.66.28c-.61.16-1.38.4-2.31.71s-2.22.77-3.87 1.36q-.42.15-.21.84l.8 3.07c0 .08.07.17.19.26a.34.34 0 0 0 .35.08c1.4-.41 2.47-.75 3.24-1a13.3 13.3 0 0 1 2-.52A12 12 0 0 1 164 64h1.79a5.33 5.33 0 0 1 4.21 1.7c1 1.16.65 8.1.65 8.1-2 .76-8.89 3-10.82 4.44-1.42 1.08-5.65 4.54-5.65 7.41a9.17 9.17 0 0 0 .47 3.81 9.28 9.28 0 0 0 2.07 3.34 8.54 8.54 0 0 0 3 2 10.53 10.53 0 0 0 3.65.64q5.26 0 8.38-5.39l.16 4c.09.35.2.56.49.56ZM171 76.77s.14 5.55 0 7.18a7.37 7.37 0 0 1-1.5 3.36 7.53 7.53 0 0 1-2.36 2.25 6.16 6.16 0 0 1-3.12.82 5.39 5.39 0 0 1-3.7-1.31c-1-.85-1.44-3.51-.17-5.58C163 78.72 171 76.77 171 76.77Zm-23.42 17.84h3.76c.28 0 .43-.21.43-.61V46.13c0-.4-.15-.6-.43-.6h-3.76c-.25 0-.37.2-.37.6V94c0 .4.12.61.37.61Zm-8.58 0h3.22c.31 0 .47-.21.47-.61V60.41c0-.37-.17-.55-.53-.55h-3.6c-.29 0-.43.18-.43.55v18.71a18.9 18.9 0 0 1-.42 4 13.64 13.64 0 0 1-1.29 3.51 7.49 7.49 0 0 1-2.18 2.53 5.06 5.06 0 0 1-3.09.95 4.28 4.28 0 0 1-2.47-.71 5.56 5.56 0 0 1-1.68-1.93 9.14 9.14 0 0 1-.92-2.73 19.57 19.57 0 0 1-.26-3.23v-21.1c0-.37-.16-.55-.48-.55h-3.6c-.28 0-.43.18-.43.55v21.1a27.08 27.08 0 0 0 .52 5.56 13.61 13.61 0 0 0 1.62 4.4 8.24 8.24 0 0 0 2.93 2.88 8.78 8.78 0 0 0 4.38 1 7.34 7.34 0 0 0 4.49-1.46 10.82 10.82 0 0 0 3.18-4.07V94c.1.4.27.61.57.61ZM119.72 77.2a29.91 29.91 0 0 0-.8-7 19.12 19.12 0 0 0-2.36-5.76 12.06 12.06 0 0 0-4-3.93 10.28 10.28 0 0 0-5.5-1.47 10.45 10.45 0 0 0-5.5 1.43 12 12 0 0 0-3.89 3.89 18.93 18.93 0 0 0-2.34 5.78 31.67 31.67 0 0 0 0 14.06 19.72 19.72 0 0 0 2.44 5.8 12.44 12.44 0 0 0 3.91 3.93 11.11 11.11 0 0 0 11 0 12 12 0 0 0 3.9-3.93 18.25 18.25 0 0 0 2.36-5.8 30.4 30.4 0 0 0 .78-7Zm-4.93 0h-.06a28.34 28.34 0 0 1-.4 4.71 14.7 14.7 0 0 1-1.3 4.16 8 8 0 0 1-2.35 3 5.57 5.57 0 0 1-3.57 1.17 5.45 5.45 0 0 1-3.54-1.17 8.28 8.28 0 0 1-2.36-3 15 15 0 0 1-1.32-4.16 26.35 26.35 0 0 1-.39-4.71 27.11 27.11 0 0 1 .39-4.75 14.83 14.83 0 0 1 1.34-4.19 9 9 0 0 1 2.39-3 6 6 0 0 1 7.09 0 8.75 8.75 0 0 1 2.36 3 15.53 15.53 0 0 1 1.31 4.23 27.46 27.46 0 0 1 .41 4.71Zm-21.52 7.51a11.37 11.37 0 0 0-.81-4.61 8.77 8.77 0 0 0-2.09-3 11 11 0 0 0-2.9-1.95c-1.07-.49-2.14-1-3.22-1.36-.75-.27-1.48-.56-2.17-.86a9.7 9.7 0 0 1-1.86-1 4.8 4.8 0 0 1-1.29-1.37 3.58 3.58 0 0 1-.47-1.87 5.15 5.15 0 0 1 .43-2.26A3.61 3.61 0 0 1 80 65a4.49 4.49 0 0 1 1.62-.72 8.2 8.2 0 0 1 1.82-.21h1.43a7.69 7.69 0 0 1 1.2.17 16.16 16.16 0 0 1 1.58.44c.64.2 1.51.52 2.62.93.21 0 .39-.08.52-.34l.92-3.15a.54.54 0 0 0-.21-.76L88.9 60a13.89 13.89 0 0 0-1.69-.71 6.46 6.46 0 0 0-1.59-.28h-2.18a11.44 11.44 0 0 0-3.54.55 8.26 8.26 0 0 0-3.06 1.74 8.81 8.81 0 0 0-2.14 3.06 11.39 11.39 0 0 0-.81 4.55 10.66 10.66 0 0 0 .75 4.3 8.25 8.25 0 0 0 2 2.83 10.33 10.33 0 0 0 2.71 1.85c1 .49 2 .91 3.05 1.33l2.31 1a9.48 9.48 0 0 1 2 1.13A5.05 5.05 0 0 1 88 82.91a4.61 4.61 0 0 1 .51 2.28 4.1 4.1 0 0 1-.62 2.32 5.07 5.07 0 0 1-1.53 1.56 6.07 6.07 0 0 1-2 .9 8.15 8.15 0 0 1-2 .27h-1.72a10.51 10.51 0 0 1-1.32-.24c-.51-.09-1.12-.24-1.86-.45s-1.75-.52-3-.91q-.44-.15-.54.39l-.85 3a.65.65 0 0 0 .32.82c1.53.64 2.73 1.12 3.58 1.44s1.6.54 2.18.71a8.83 8.83 0 0 0 1.65.27h2a12.83 12.83 0 0 0 3.75-.57 9.75 9.75 0 0 0 3.39-1.85 9.35 9.35 0 0 0 2.44-3.32 11.63 11.63 0 0 0 .89-4.82Zm-20.33 0a11.37 11.37 0 0 0-.81-4.61 9.05 9.05 0 0 0-2.09-3 11.19 11.19 0 0 0-2.9-1.95c-1.07-.49-2.14-1-3.21-1.36-.77-.27-1.49-.56-2.18-.86a9.79 9.79 0 0 1-1.87-1 4.9 4.9 0 0 1-1.28-1.37 3.49 3.49 0 0 1-.48-1.87 5 5 0 0 1 .44-2.26A3.61 3.61 0 0 1 59.67 65a4.49 4.49 0 0 1 1.62-.72 8.14 8.14 0 0 1 1.82-.21h1.42a8 8 0 0 1 1.21.17 16.16 16.16 0 0 1 1.58.44c.64.2 1.5.52 2.61.93.22 0 .4-.08.53-.34l.92-3.15a.55.55 0 0 0-.22-.76L68.56 60a12.69 12.69 0 0 0-1.69-.71 6.3 6.3 0 0 0-1.58-.28h-2.18a11.44 11.44 0 0 0-3.54.55 8.18 8.18 0 0 0-3.06 1.74 8.68 8.68 0 0 0-2.14 3.06 11.39 11.39 0 0 0-.81 4.55 10.66 10.66 0 0 0 .75 4.3 8.23 8.23 0 0 0 2 2.83A10.55 10.55 0 0 0 59 77.92c1 .49 2 .91 3 1.33l2.31 1a9.74 9.74 0 0 1 2 1.13 5.05 5.05 0 0 1 1.37 1.58 4.61 4.61 0 0 1 .51 2.28 4.1 4.1 0 0 1-.63 2.32 5 5 0 0 1-1.52 1.56 6.17 6.17 0 0 1-2 .9 8.17 8.17 0 0 1-2 .27h-1.72A10.37 10.37 0 0 1 59 90a18.65 18.65 0 0 1-1.86-.45c-.73-.2-1.75-.52-3-.91-.28-.1-.46 0-.53.39l-.85 3a.64.64 0 0 0 .31.82c1.54.64 2.73 1.12 3.59 1.44s1.6.54 2.18.71a8.87 8.87 0 0 0 1.64.27h2a12.88 12.88 0 0 0 3.75-.57 9.84 9.84 0 0 0 3.39-1.85A9.35 9.35 0 0 0 72 89.62a11.78 11.78 0 0 0 .94-4.91ZM46 94.61h3.8c.25 0 .38-.21.38-.61V60.13c0-.41-.13-.6-.43-.6H46c-.08 0-.16 0-.28.16a.64.64 0 0 0-.16.44V94a.64.64 0 0 0 .16.44.46.46 0 0 0 .28.17Zm0-41.44h4a.48.48 0 0 0 .26-.13.53.53 0 0 0 .17-.42v-5.73a.6.6 0 0 0-.17-.44.44.44 0 0 0-.32-.18h-4c-.25 0-.38.21-.38.62v5.73c-.02.38.13.55.44.55Zm-8.7 41.44H41c.32 0 .48-.21.48-.61V72.42a28.9 28.9 0 0 0-.48-5.19A13.38 13.38 0 0 0 39.48 63a8 8 0 0 0-2.77-2.87A7.92 7.92 0 0 0 32.52 59a7.39 7.39 0 0 0-4.91 1.78 12 12 0 0 0-3.36 4.85 9.88 9.88 0 0 0-2.75-4.88A6.66 6.66 0 0 0 16.85 59a7.24 7.24 0 0 0-4.56 1.43 11.14 11.14 0 0 0-3.07 4v-4c0-.37-.16-.55-.48-.55H5.37c-.34 0-.49.18-.49.55V94c0 .4.15.61.49.61H9c.32 0 .49-.21.49-.61V74.82A21.75 21.75 0 0 1 9.84 71a13 13 0 0 1 1.1-3.41 7.17 7.17 0 0 1 2-2.45 4.68 4.68 0 0 1 3-1 4 4 0 0 1 2.31.68 4.81 4.81 0 0 1 1.53 1.85 9.9 9.9 0 0 1 .83 2.63 16.33 16.33 0 0 1 .27 3V94c0 .4.16.61.48.61H25c.33 0 .49-.21.49-.61V74.68a20.1 20.1 0 0 1 .35-3.79 12.53 12.53 0 0 1 1.09-3.38 6.7 6.7 0 0 1 2-2.42 4.78 4.78 0 0 1 2.95-.93 3.78 3.78 0 0 1 2.28.68 5.37 5.37 0 0 1 1.56 1.85 8.67 8.67 0 0 1 .89 2.63 17.26 17.26 0 0 1 .26 3V94c-.06.4.13.61.43.61Z" fill="#ef5a21"></path><path d="M357.08 78.64h18.2c.29 0 .43-.2.43-.62a46.77 46.77 0 0 0-.53-7.1 20.87 20.87 0 0 0-1.85-6 11.46 11.46 0 0 0-3.52-4.23 9.23 9.23 0 0 0-5.59-1.69 9.06 9.06 0 0 0-5.22 1.58 12.42 12.42 0 0 0-3.77 4.07 20.11 20.11 0 0 0-2.26 5.8 30.16 30.16 0 0 0-.75 6.75 34.61 34.61 0 0 0 .72 7.21 17.86 17.86 0 0 0 2.27 5.74 11.4 11.4 0 0 0 3.86 3.85 10.9 10.9 0 0 0 5.64 1.4h2a9.15 9.15 0 0 0 1.64-.27c.58-.17 1.3-.41 2.16-.71s2.05-.8 3.55-1.44a.69.69 0 0 0 .32-.82l-.86-3a.59.59 0 0 0-.24-.33c-.12-.09-.23-.12-.29-.06-1.4.39-2.49.73-3.28 1a14.85 14.85 0 0 1-2 .52 14.46 14.46 0 0 1-1.47.17h-1.75a5.81 5.81 0 0 1-3.45-1 6.91 6.91 0 0 1-2.21-2.56 13.89 13.89 0 0 1-1.24-3.72 36.15 36.15 0 0 1-.51-4.54ZM364.49 64a4.78 4.78 0 0 1 2.83.82 6.28 6.28 0 0 1 1.89 2.18 11.05 11.05 0 0 1 1.13 3.15 24.16 24.16 0 0 1 .49 3.6H357.2a19.68 19.68 0 0 1 .74-3.65 12.31 12.31 0 0 1 1.46-3.1 7.64 7.64 0 0 1 2.17-2.18 5.22 5.22 0 0 1 2.92-.82Zm-19.15 30.61h3.59c.31 0 .48-.21.48-.61V72.21a25.6 25.6 0 0 0-.54-5.42 13.16 13.16 0 0 0-1.66-4.26 8 8 0 0 0-7.08-3.83 7.13 7.13 0 0 0-4.54 1.4 10.75 10.75 0 0 0-3 4v-18c0-.4-.17-.6-.49-.6h-3.6c-.29 0-.43.2-.43.6V94a.6.6 0 0 0 .17.44.44.44 0 0 0 .32.17h3.6c.31 0 .47-.21.47-.61V75.08a19.78 19.78 0 0 1 .44-4.19 12.53 12.53 0 0 1 1.32-3.59 7.35 7.35 0 0 1 2.22-2.49 5.49 5.49 0 0 1 3.16-.92 4 4 0 0 1 2.32.65 5.44 5.44 0 0 1 1.6 1.7 7.65 7.65 0 0 1 .94 2.5 14 14 0 0 1 .31 3V94c-.03.4.06.61.4.61Zm-18.41-1.7.26-.82-.85-3q-.1-.54-.54-.39c-1.4.39-2.48.73-3.25 1a14.12 14.12 0 0 1-1.95.52c-.55.09-1 .14-1.49.17s-1 0-1.78 0a5.57 5.57 0 0 1-3.6-1.16 8 8 0 0 1-2.31-3.07 16.73 16.73 0 0 1-1.22-4.3 35.38 35.38 0 0 1-.34-4.85 23.89 23.89 0 0 1 .48-4.71 15.9 15.9 0 0 1 1.46-4.14 8.13 8.13 0 0 1 2.47-2.89 5.91 5.91 0 0 1 3.59-1.1h1.4a6.57 6.57 0 0 1 1.12.16 11.86 11.86 0 0 1 1.45.45l2.42.86c.06 0 .15 0 .27-.08l.27-.26.95-3.15a.53.53 0 0 0-.26-.76c-1-.59-1.86-1-2.44-1.36a10 10 0 0 0-1.64-.71 6.15 6.15 0 0 0-1.56-.28h-2.19a10.56 10.56 0 0 0-5.53 1.43 12.22 12.22 0 0 0-3.95 3.89 19 19 0 0 0-2.39 5.78 30.11 30.11 0 0 0-.8 7.06 31.33 31.33 0 0 0 .77 7.07A19 19 0 0 0 308.1 90a11.82 11.82 0 0 0 3.9 3.93 10.36 10.36 0 0 0 5.5 1.43h2a9.16 9.16 0 0 0 1.67-.27c.58-.17 1.3-.41 2.17-.71s2.05-.83 3.59-1.47Zm-27.86 1.7h3.6c.32 0 .48-.21.48-.61V72.42a24.55 24.55 0 0 0-.54-5.39 13.41 13.41 0 0 0-1.61-4.24 7.92 7.92 0 0 0-7.1-3.75 7.6 7.6 0 0 0-4.64 1.43 11.86 11.86 0 0 0-3.3 4.1v-4.16c0-.37-.15-.55-.43-.55h-3.38c-.29 0-.43.18-.43.55V94c0 .4.14.61.43.61h3.6c.32 0 .48-.21.48-.61V75.29a19.56 19.56 0 0 1 .43-4.13 11.94 11.94 0 0 1 1.31-3.55 7.86 7.86 0 0 1 2.26-2.49 5.42 5.42 0 0 1 3.19-1 4.18 4.18 0 0 1 2.29.62 5.1 5.1 0 0 1 1.66 1.7 8.43 8.43 0 0 1 1 2.5 12.94 12.94 0 0 1 .32 3V94c-.05.4.09.61.38.61Zm-49.83 0H253c.29 0 .43-.21.43-.61V46.13c0-.4-.14-.6-.43-.6h-3.76c-.24 0-.37.2-.37.6V94c0 .4.13.61.37.61Zm24.82 0h3.55a.38.38 0 0 0 .37-.23 1 1 0 0 0 0-.58 10 10 0 0 1-.2-1.07c0-.43-.08-.91-.1-1.43l-.05-1.5V71.33c0-4.33-.85-7.45-2.53-9.39s-4.17-2.9-7.46-2.9h-2a8.34 8.34 0 0 0-1.66.28c-.62.16-1.39.4-2.33.71l-3.86 1.36c-.28.1-.34.38-.21.84l.8 3.07c0 .08.07.17.19.26a.34.34 0 0 0 .35.08c1.4-.41 2.47-.75 3.25-1a13 13 0 0 1 2-.52 11.86 11.86 0 0 1 1.47-.17h1.79a5.38 5.38 0 0 1 4.3 1.74c1 1.16.64 8.1.64 8.1-2 .76-8.89 3-10.82 4.44-1.43 1.08-5.65 4.54-5.65 7.41a9 9 0 0 0 .48 3.81 9.15 9.15 0 0 0 2.07 3.34 8.33 8.33 0 0 0 3 2 10.53 10.53 0 0 0 3.65.64q5.27 0 8.38-5.39l.16 4c-.01.36.14.57.42.57Zm-1.43-17.84s.13 5.55 0 7.18a7.27 7.27 0 0 1-1.5 3.36 7.43 7.43 0 0 1-2.36 2.25 6.1 6.1 0 0 1-3.11.82 5.4 5.4 0 0 1-3.71-1.31c-1-.85-1.44-3.51-.18-5.58 2.88-4.77 10.86-6.72 10.86-6.72Zm-75.38 17.84h3.54a.38.38 0 0 0 .38-.23.82.82 0 0 0 0-.58 8.17 8.17 0 0 1-.19-1.07c0-.43-.1-.91-.11-1.43l-.05-1.5V71.33c0-4.33-.85-7.45-2.52-9.39s-4.18-2.9-7.46-2.9h-2a8.71 8.71 0 0 0-1.66.28c-.61.16-1.37.4-2.31.71s-2.22.77-3.87 1.36c-.28.1-.35.38-.22.84l.81 3.07c0 .08.07.17.19.26a.35.35 0 0 0 .35.08c1.4-.41 2.48-.75 3.24-1a13 13 0 0 1 2-.52 12.23 12.23 0 0 1 1.43-.12h1.8a5.37 5.37 0 0 1 4.29 1.74c1 1.16.64 8.1.64 8.1-2 .76-8.89 3-10.82 4.44-1.42 1.08-5.65 4.54-5.65 7.41a9 9 0 0 0 .48 3.81 9.13 9.13 0 0 0 2.06 3.34 8.45 8.45 0 0 0 3 2 10.56 10.56 0 0 0 3.64.64q5.28 0 8.39-5.39l.16 4c.03.31.21.52.46.52Zm-1.44-17.84s.14 5.55 0 7.18a9.07 9.07 0 0 1-3.86 5.61 6.16 6.16 0 0 1-3.12.82 5.43 5.43 0 0 1-3.71-1.31c-1-.85-1.43-3.51-.16-5.58 2.88-4.77 10.85-6.72 10.85-6.72Zm45.49 17.84h3.55a.37.37 0 0 0 .37-.23.82.82 0 0 0 0-.58c-.06-.28-.13-.63-.19-1.07s-.09-.91-.1-1.43l-.06-1.5V71.33c0-4.33-.85-7.45-2.54-9.39s-4.16-2.9-7.45-2.9h-2a8.85 8.85 0 0 0-1.66.28c-.61.16-1.37.4-2.31.71L225 61.42q-.43.15-.21.84l.79 3.07c0 .08.07.17.2.26a.34.34 0 0 0 .35.08c1.4-.41 2.47-.75 3.23-1a13.63 13.63 0 0 1 2-.52 12.23 12.23 0 0 1 1.48-.17h1.8a5.36 5.36 0 0 1 4.29 1.74c1 1.16.65 8.1.65 8.1-2 .76-8.9 3-10.82 4.44-1.43 1.08-5.65 4.54-5.65 7.41a9 9 0 0 0 .47 3.81 9.28 9.28 0 0 0 2.07 3.34 8.41 8.41 0 0 0 3 2 10.62 10.62 0 0 0 3.65.64q5.26 0 8.38-5.39l.16 4c.03.33.16.54.46.54Zm-1.43-17.84s.13 5.55 0 7.18a9 9 0 0 1-3.87 5.61 6.16 6.16 0 0 1-3.12.82 5.4 5.4 0 0 1-3.7-1.31c-1-.85-1.43-3.51-.17-5.58 2.88-4.77 10.86-6.72 10.86-6.72ZM214.05 94.2l10.31-33.52a.67.67 0 0 0-.06-.58.5.5 0 0 0-.43-.24h-3.55a.48.48 0 0 0-.26.14.39.39 0 0 0-.16.27l-7 23.32-6.86-23.32c0-.09-.06-.18-.19-.27a.6.6 0 0 0-.3-.14h-4a.36.36 0 0 0-.37.24.65.65 0 0 0 0 .58l10.24 33.52a4.22 4.22 0 0 0 2.63 0Z" fill="#565656"></path></g></g></svg> 